<?xml version="1.0" encoding="utf-8" ?><svg xmlns="http://www.w3.org/2000/svg" xmlns:xlink="http://www.w3.org/1999/xlink" width="1024" height="1024" viewBox="0 0 1024 1024"><path fill="#E94644" d="M527.23 436.054C518.409 418.933 530.786 406.71 547.988 405.746C555.346 406.31 561.804 408.095 566.917 413.942C570.144 417.61 571.768 422.419 571.425 427.292C570.608 438.685 561.064 443.342 551.685 446.596C584.63 455.327 610.328 474.13 627.989 503.581C637.542 519.511 646.239 544.622 648.694 563.097C636.586 576.606 615.168 592.561 599.716 601.854C585.507 611.072 567.666 619.392 551.849 625.543C547.273 627.323 532.757 631.24 530.452 632.767C529.211 632.445 526.984 632.491 526.211 633.175C524.257 634.901 530.912 633.208 531.099 633.159C550.713 633.435 576.051 625.996 594.283 619.112C616.758 609.518 634.045 598.295 651.583 581.309C651.331 606.418 646.661 629.187 628.025 647.375C604.35 670.482 562.629 683.452 530.443 688.66C526.97 689.351 524.729 689.768 521.376 690.92C536.837 694.147 553.663 693.815 569.262 691.909C566.114 706.835 564.013 715.104 557.439 729.335C548.16 730.384 538.871 731.329 529.572 732.171L528.717 733.421C537.513 735.917 543.356 737.704 552.511 738.745C569.984 740.824 587.008 739.368 603.564 733.369C575.661 788.379 513.995 811.322 459.95 777.898C443.099 770.492 428.559 749.608 420.943 733.517C443.692 743.252 476.157 740.328 499.329 732.83C488.886 731.062 475.7 730.361 464.772 728.918C445.601 726.385 432.273 722.058 414.229 716.113C411.952 709.361 409.952 701.726 407.771 694.834C405.326 687.109 402.295 678.488 400.393 670.724C436.885 693.782 463.969 696.492 505.784 690.89C497.841 689.021 489.397 688.199 481.207 686.413C442.787 678.032 396.439 662.21 379.688 623.298C374.695 611.702 371.797 594.671 373.144 582.049C402.911 606.886 426.999 622.386 466.122 630.331C472.629 631.653 484.813 633.731 491.207 633.299L492.772 632.558C490.914 631.6 488.068 630.491 486.035 629.958C436.052 616.859 419.194 555.345 440.297 512.222C452.543 487.198 469.165 475.004 494.835 466.084C495.603 465.776 496.16 465.645 496.958 465.431C501.32 465.015 504.39 464.081 508.534 462.94C504.828 463.147 499.148 463.475 495.639 464.283L494.905 464.45C486.856 464.495 478.791 467.238 471.493 470.378C432.907 486.98 408.864 533.059 418.739 574.115C421.36 585.014 425.61 594.08 430.165 604.322C409.147 594.483 391.417 579.639 375.443 563.099C377.184 542.12 391.01 509.094 403.352 492.362C416.856 474.075 435.252 459.975 456.421 451.687C461.75 449.555 467.399 447.489 473.086 446.621C468.179 445.023 462.367 444.043 458.405 440.753C445.429 429.977 450.859 412.174 465.971 407.055C469.104 405.993 471.284 405.982 474.463 405.807C490.783 406.718 503.167 419.069 495.557 435.568C502.991 436.304 518.938 435.96 527.23 436.054Z"/><path fill="#C10A09" d="M547.988 405.746C555.346 406.31 561.804 408.095 566.917 413.942C570.144 417.61 571.768 422.419 571.425 427.292C570.608 438.685 561.064 443.342 551.685 446.596C584.63 455.327 610.328 474.13 627.989 503.581C637.542 519.511 646.239 544.622 648.694 563.097C636.586 576.606 615.168 592.561 599.716 601.854C599.976 598.335 602.589 588.34 603.356 584.154C606.615 566.284 606.172 547.935 602.052 530.243C592.947 492.313 570.337 465.659 537.69 445.689L538.461 444.667C541.127 445.454 545.088 446.196 547.915 446.8C548.084 433.116 548.109 419.431 547.988 405.746Z"/><path fill="#C10A09" d="M594.283 619.112C616.758 609.518 634.045 598.295 651.583 581.309C651.331 606.418 646.661 629.187 628.025 647.375C604.35 670.482 562.629 683.452 530.443 688.66C532.312 685.775 542.625 680.686 546.388 678.034C570.128 661.308 582.17 644.716 594.283 619.112Z"/><path fill="#C10A09" d="M552.511 738.745C569.984 740.824 587.008 739.368 603.564 733.369C575.661 788.379 513.995 811.322 459.95 777.898C464.09 777.178 472.441 778.409 476.93 778.403C498.866 778.372 520.321 772.824 536.662 757.504C542.918 751.639 547.441 745.603 552.511 738.745Z"/><path fill="#C10A09" d="M474.463 405.807C490.783 406.718 503.167 419.069 495.557 435.568C489.242 443.439 483.887 444.608 474.341 446.218C474.544 432.749 474.585 419.278 474.463 405.807Z"/><path fill="#F4BCBE" d="M492.772 632.558C496.023 631.821 501.98 635.362 491.207 633.299L492.772 632.558Z"/><path fill="#F4BCBE" d="M528.717 733.421C522.964 733.828 523.493 730.862 529.572 732.171L528.717 733.421Z"/><path fill="#CD1315" d="M537.69 445.689C537.309 445.379 536.367 444.855 536.287 444.274C536.728 443.872 537.968 444.485 538.461 444.667L537.69 445.689Z"/><path fill="#E94644" d="M682.372 242.465C687.47 242.313 692.342 242.362 697.391 243.11C770.074 251.612 822.774 311.133 813.884 385.313C810.861 412.579 797.029 437.494 775.485 454.479C758.04 468.077 735.791 475.988 713.567 473.144L712.98 473.063C688.083 469.932 666.757 453.727 650.012 435.948C608.407 391.772 608.143 316.825 654.43 275.569C654.057 281.203 653.607 286.832 653.08 292.455C652.426 317.989 656.75 341.705 682.917 351.594C680.338 363.217 678.138 379.424 693.599 382.978C700.809 383.772 703.124 383.375 710.498 382.345C697.6 373.844 702.268 365.376 704.502 352.983C711.239 315.612 696.376 278.493 662.145 260.187C653.703 255.672 647.004 253.737 637.862 251.056C653.036 245.985 666.223 243.021 682.372 242.465Z"/><path fill="#C10A09" d="M682.372 242.465C687.47 242.313 692.342 242.362 697.391 243.11C770.074 251.612 822.774 311.133 813.884 385.313C810.861 412.579 797.029 437.494 775.485 454.479C758.04 468.077 735.791 475.988 713.567 473.144L712.98 473.063C716.57 470.639 720.274 468.286 723.815 465.79C801.255 411.194 786.785 302.84 709.295 256.66C701.833 252.213 695.121 248.965 687.138 245.242C685.302 244.731 683.744 243.764 682.372 242.465Z"/><path fill="#CD1315" d="M682.372 242.465C687.47 242.313 692.342 242.362 697.391 243.11C693.097 245.572 690.412 243.768 687.138 245.242C685.302 244.731 683.744 243.764 682.372 242.465Z"/><path fill="#C10A09" d="M693.599 382.978C688.183 384.125 677.146 382.832 671.706 380.607C663.442 377.227 659.501 370.093 656.175 362.307C648.973 345.181 647.915 325.369 649.034 307.01C649.239 303.633 649.65 293.668 653.08 292.455C652.426 317.989 656.75 341.705 682.917 351.594C680.338 363.217 678.138 379.424 693.599 382.978Z"/><path fill="#E94644" d="M309.923 472.5C272.655 479.764 235.719 451.362 220.424 419.05C206.836 390.029 205.437 356.775 216.539 326.716C227.876 295.139 253.048 268.781 283.388 254.727C315.42 239.98 352.016 238.636 385.044 250.992C375.687 253.937 368.43 256.514 359.957 261.392C327.943 279.82 313.941 313 318.229 348.986C319.704 361.362 326.937 374.689 313.089 381.936C319.833 383.512 328.213 385.122 334.403 381.29C339.234 378.298 340.378 375.005 342.885 370.526C343.982 360.192 343.516 363.456 342.241 353.342C342.191 352.924 341.842 351.496 342.257 351.354C363.575 344.088 371.019 320.773 371.6 300.081C371.811 292.545 370.439 283.719 369.208 275.429C389.226 292.503 402.081 320.178 404.267 346.124C407.052 379.167 396.638 410.524 374.646 435.343C357.206 455.023 336.323 469.264 309.923 472.5ZM305.579 274.201C306.484 273.901 308.253 272.954 309.012 272.371C311.571 271.184 312.097 271.466 314.01 269.451C311.166 270.116 310.767 270.1 307.9 271.129C306.745 271.463 304.002 272.532 302.943 273.083C248.869 296.915 221.468 351.692 245.458 408.653C251.635 423.317 264.08 440.804 278.16 448.922C273.968 444.114 267.429 437.217 264.31 431.822C232.889 377.464 249.923 304.846 305.579 274.201Z"/><path fill="#C10A09" d="M369.208 275.429C389.226 292.503 402.081 320.178 404.267 346.124C407.052 379.167 396.638 410.524 374.646 435.343C357.206 455.023 336.323 469.264 309.923 472.5C311.153 470.765 312.969 468.785 314.401 467.206C335.83 443.587 347.124 412.352 346.988 380.543C346.963 374.574 347.372 368.653 345.723 362.632C345.67 362.205 343.743 348.387 342.241 353.342C342.191 352.924 341.842 351.496 342.257 351.354C363.575 344.088 371.019 320.773 371.6 300.081C371.811 292.545 370.439 283.719 369.208 275.429Z"/><path fill="#F25156" d="M342.241 353.342C343.743 348.387 345.67 362.205 345.723 362.632C345.561 362.882 345.4 363.132 345.238 363.382C344.968 363.193 345.049 361.733 344.818 361.1C343.889 364.327 345.646 367.221 342.885 370.526C343.982 360.192 343.516 363.456 342.241 353.342Z"/><path fill="#FDFAFD" fill-opacity="0.4627451" d="M302.943 273.083C304.002 272.532 306.745 271.463 307.9 271.129C308.2 271.954 308.209 271.846 309.012 272.371C308.253 272.954 306.484 273.901 305.579 274.201C304.337 273.514 304.28 273.472 302.943 273.083Z"/><path fill="#FDFAFD" fill-opacity="0.047058824" d="M314.01 269.451C312.097 271.466 311.571 271.184 309.012 272.371C308.209 271.846 308.2 271.954 307.9 271.129C310.767 270.1 311.166 270.116 314.01 269.451Z"/><path fill="#F4BCBE" d="M314.01 269.451C315.553 268.138 317.918 268.081 319.867 268.208C318.267 268.963 315.449 270.689 314.01 269.451Z"/><path fill="#C10A09" d="M347.631 476.585C351.73 480.192 363.521 492.464 366.97 496.602C351.19 520.439 314.388 530.585 287.913 524.078C285.764 523.55 285.61 523.312 284.529 521.531C279.082 511.143 270.789 492.906 265.927 482.02C297.847 492.555 318.154 490.617 347.631 476.585Z"/><path fill="#C10A09" d="M676.371 476.593C681.641 478.702 686.171 481.363 692.122 483.476C716.311 492.063 733.544 488.386 757.09 482.517C751.365 495.982 744.833 509.024 738.981 522.421C736.172 525.798 717.9 526.219 713.248 525.916C690.8 524.457 671.101 513.332 656.472 496.535C659.725 492.549 672.367 480.335 676.371 476.593Z"/><path fill="#C10A09" d="M569.262 691.909C594.362 687.821 602.488 682.832 623.624 671.039L609.283 716.012C599.446 719.646 590.398 722.88 580.134 725.168C572.507 726.869 565.077 727.881 557.439 729.335C564.013 715.104 566.114 706.835 569.262 691.909Z"/><path fill="#C10A09" d="M648.775 510.837C652.05 514.065 656.971 518.591 660.515 521.399C676.219 533.841 703.24 542.855 723.272 540.319L700.265 556.417C691.106 562.912 675.562 573.594 665.524 578.759C664.352 549.706 658.559 536.556 648.775 510.837Z"/><path fill="#C10A09" d="M309.123 540.623C337.478 539.786 354.615 529.649 375.256 511.576C365.338 534.516 358.914 553.738 358.271 579.106C339.664 568.126 320.622 554.948 303.069 542.204C305.892 541.204 305.694 542.137 309.123 540.623Z"/><path fill="#FEF0F1" fill-opacity="0.87058824" d="M495.639 464.283C499.148 463.475 504.828 463.147 508.534 462.94C504.39 464.081 501.32 465.015 496.958 465.431C496.518 465.049 496.079 464.666 495.639 464.283Z"/><path fill="#CD1315" fill-opacity="0.98823529" d="M303.069 542.204C302.689 541.96 301.492 541.383 301.314 540.833C301.177 540.415 302.24 540.454 302.464 540.483C304.668 540.772 306.904 540.628 309.123 540.623C305.694 542.137 305.892 541.204 303.069 542.204Z"/><path fill="#F4BCBE" fill-opacity="0.98823529" d="M531.099 633.159C530.912 633.208 524.257 634.901 526.211 633.175C526.984 632.491 529.211 632.445 530.452 632.767L531.099 633.159Z"/><path fill="#FDFAFD" fill-opacity="0.11764706" d="M495.639 464.283C496.079 464.666 496.518 465.049 496.958 465.431C496.16 465.645 495.603 465.776 494.835 466.084L494.905 464.45L495.639 464.283Z"/></svg>