<svg xmlns="http://www.w3.org/2000/svg" viewBox="0 0 16 16" width="16" height="16" shape-rendering="crispEdges" role="img" aria-label="Goose"><rect x="0" y="0" width="16" height="16" rx="0" fill="#e8e2d6" opacity="0.16"/><rect x="10" y="1" width="1" height="1" fill="#3a3a42"/><rect x="11" y="1" width="1" height="1" fill="#3a3a42"/><rect x="9" y="2" width="1" height="1" fill="#3a3a42"/><rect x="10" y="2" width="1" height="1" fill="#f4efe6"/><rect x="11" y="2" width="1" height="1" fill="#f4efe6"/><rect x="12" y="2" width="1" height="1" fill="#3a3a42"/><rect x="9" y="3" width="1" height="1" fill="#3a3a42"/><rect x="10" y="3" width="1" height="1" fill="#f4efe6"/><rect x="11" y="3" width="1" height="1" fill="#ff9e2c"/><rect x="12" y="3" width="1" height="1" fill="#3a3a42"/><rect x="9" y="4" width="1" height="1" fill="#3a3a42"/><rect x="10" y="4" width="1" height="1" fill="#f4efe6"/><rect x="11" y="4" width="1" height="1" fill="#f4efe6"/><rect x="12" y="4" width="1" height="1" fill="#3a3a42"/><rect x="8" y="5" width="1" height="1" fill="#3a3a42"/><rect x="9" y="5" width="1" height="1" fill="#f4efe6"/><rect x="10" y="5" width="1" height="1" fill="#f4efe6"/><rect x="11" y="5" width="1" height="1" fill="#f4efe6"/><rect x="12" y="5" width="1" height="1" fill="#3a3a42"/><rect x="7" y="6" width="1" height="1" fill="#3a3a42"/><rect x="8" y="6" width="1" height="1" fill="#f4efe6"/><rect x="9" y="6" width="1" height="1" fill="#f4efe6"/><rect x="10" y="6" width="1" height="1" fill="#f4efe6"/><rect x="11" y="6" width="1" height="1" fill="#f4efe6"/><rect x="12" y="6" width="1" height="1" fill="#3a3a42"/><rect x="3" y="7" width="1" height="1" fill="#3a3a42"/><rect x="4" y="7" width="1" height="1" fill="#3a3a42"/><rect x="5" y="7" width="1" height="1" fill="#3a3a42"/><rect x="6" y="7" width="1" height="1" fill="#3a3a42"/><rect x="7" y="7" width="1" height="1" fill="#f4efe6"/><rect x="8" y="7" width="1" height="1" fill="#f4efe6"/><rect x="9" y="7" width="1" height="1" fill="#f4efe6"/><rect x="10" y="7" width="1" height="1" fill="#f4efe6"/><rect x="11" y="7" width="1" height="1" fill="#f4efe6"/><rect x="12" y="7" width="1" height="1" fill="#3a3a42"/><rect x="2" y="8" width="1" height="1" fill="#3a3a42"/><rect x="3" y="8" width="1" height="1" fill="#f4efe6"/><rect x="4" y="8" width="1" height="1" fill="#f4efe6"/><rect x="5" y="8" width="1" height="1" fill="#f4efe6"/><rect x="6" y="8" width="1" height="1" fill="#f4efe6"/><rect x="7" y="8" width="1" height="1" fill="#f4efe6"/><rect x="8" y="8" width="1" height="1" fill="#f4efe6"/><rect x="9" y="8" width="1" height="1" fill="#f4efe6"/><rect x="10" y="8" width="1" height="1" fill="#f4efe6"/><rect x="11" y="8" width="1" height="1" fill="#f4efe6"/><rect x="12" y="8" width="1" height="1" fill="#3a3a42"/><rect x="1" y="9" width="1" height="1" fill="#3a3a42"/><rect x="2" y="9" width="1" height="1" fill="#f4efe6"/><rect x="3" y="9" width="1" height="1" fill="#f4efe6"/><rect x="4" y="9" width="1" height="1" fill="#f4efe6"/><rect x="5" y="9" width="1" height="1" fill="#f4efe6"/><rect x="6" y="9" width="1" height="1" fill="#f4efe6"/><rect x="7" y="9" width="1" height="1" fill="#f4efe6"/><rect x="8" y="9" width="1" height="1" fill="#f4efe6"/><rect x="9" y="9" width="1" height="1" fill="#f4efe6"/><rect x="10" y="9" width="1" height="1" fill="#f4efe6"/><rect x="11" y="9" width="1" height="1" fill="#f4efe6"/><rect x="12" y="9" width="1" height="1" fill="#3a3a42"/><rect x="1" y="10" width="1" height="1" fill="#3a3a42"/><rect x="2" y="10" width="1" height="1" fill="#f4efe6"/><rect x="3" y="10" width="1" height="1" fill="#f4efe6"/><rect x="4" y="10" width="1" height="1" fill="#f4efe6"/><rect x="5" y="10" width="1" height="1" fill="#f4efe6"/><rect x="6" y="10" width="1" height="1" fill="#f4efe6"/><rect x="7" y="10" width="1" height="1" fill="#f4efe6"/><rect x="8" y="10" width="1" height="1" fill="#f4efe6"/><rect x="9" y="10" width="1" height="1" fill="#f4efe6"/><rect x="10" y="10" width="1" height="1" fill="#f4efe6"/><rect x="11" y="10" width="1" height="1" fill="#f4efe6"/><rect x="12" y="10" width="1" height="1" fill="#3a3a42"/><rect x="1" y="11" width="1" height="1" fill="#3a3a42"/><rect x="2" y="11" width="1" height="1" fill="#f4efe6"/><rect x="3" y="11" width="1" height="1" fill="#f4efe6"/><rect x="4" y="11" width="1" height="1" fill="#f4efe6"/><rect x="5" y="11" width="1" height="1" fill="#f4efe6"/><rect x="6" y="11" width="1" height="1" fill="#f4efe6"/><rect x="7" y="11" width="1" height="1" fill="#f4efe6"/><rect x="8" y="11" width="1" height="1" fill="#f4efe6"/><rect x="9" y="11" width="1" height="1" fill="#f4efe6"/><rect x="10" y="11" width="1" height="1" fill="#f4efe6"/><rect x="11" y="11" width="1" height="1" fill="#3a3a42"/><rect x="2" y="12" width="1" height="1" fill="#3a3a42"/><rect x="3" y="12" width="1" height="1" fill="#f4efe6"/><rect x="4" y="12" width="1" height="1" fill="#f4efe6"/><rect x="5" y="12" width="1" height="1" fill="#f4efe6"/><rect x="6" y="12" width="1" height="1" fill="#f4efe6"/><rect x="7" y="12" width="1" height="1" fill="#f4efe6"/><rect x="8" y="12" width="1" height="1" fill="#f4efe6"/><rect x="9" y="12" width="1" height="1" fill="#f4efe6"/><rect x="10" y="12" width="1" height="1" fill="#3a3a42"/><rect x="3" y="13" width="1" height="1" fill="#3a3a42"/><rect x="4" y="13" width="1" height="1" fill="#3a3a42"/><rect x="5" y="13" width="1" height="1" fill="#3a3a42"/><rect x="6" y="13" width="1" height="1" fill="#3a3a42"/><rect x="7" y="13" width="1" height="1" fill="#3a3a42"/><rect x="8" y="13" width="1" height="1" fill="#3a3a42"/><rect x="9" y="13" width="1" height="1" fill="#3a3a42"/><rect x="4" y="14" width="1" height="1" fill="#ff9e2c"/><rect x="5" y="14" width="1" height="1" fill="#ff9e2c"/><rect x="8" y="14" width="1" height="1" fill="#ff9e2c"/><rect x="9" y="14" width="1" height="1" fill="#ff9e2c"/><rect x="4" y="15" width="1" height="1" fill="#ff9e2c"/><rect x="5" y="15" width="1" height="1" fill="#ff9e2c"/><rect x="8" y="15" width="1" height="1" fill="#ff9e2c"/><rect x="9" y="15" width="1" height="1" fill="#ff9e2c"/></svg>